<svg width="20" height="20" viewBox="0 0 20 20" fill="none" xmlns="http://www.w3.org/2000/svg">
<path d="M4.28599 15.7143H19.286C19.4754 15.7143 19.6571 15.7895 19.7911 15.9235C19.925 16.0574 20.0003 16.2391 20.0003 16.4286C20.0003 16.618 19.925 16.7997 19.7911 16.9336C19.6571 17.0676 19.4754 17.1429 19.286 17.1429H3.57171C3.38227 17.1429 3.20059 17.0676 3.06663 16.9336C2.93268 16.7997 2.85742 16.618 2.85742 16.4286V0.714286C2.85742 0.524845 2.93268 0.343164 3.06663 0.209209C3.20059 0.0752549 3.38227 0 3.57171 0C3.76115 0 3.94283 0.0752549 4.07678 0.209209C4.21074 0.343164 4.28599 0.524845 4.28599 0.714286V15.7143Z" fill="#808D8D"/>
<path d="M17.1429 3.56975V19.284C17.1429 19.4735 17.0676 19.6552 16.9336 19.7891C16.7997 19.9231 16.618 19.9983 16.4286 19.9983C16.2391 19.9983 16.0574 19.9231 15.9235 19.7891C15.7895 19.6552 15.7143 19.4735 15.7143 19.284V4.28404H0.714286C0.524845 4.28404 0.343164 4.20879 0.209209 4.07483C0.0752549 3.94088 0 3.75919 0 3.56975C0 3.38031 0.0752549 3.19863 0.209209 3.06468C0.343164 2.93072 0.524845 2.85547 0.714286 2.85547H16.4286C16.618 2.85547 16.7997 2.93072 16.9336 3.06468C17.0676 3.19863 17.1429 3.38031 17.1429 3.56975Z" fill="#808D8D"/>
</svg>
