<svg width="26" height="20" viewBox="0 0 26 20" fill="none" xmlns="http://www.w3.org/2000/svg">
<path d="M0.8125 4.76132H13.7312C13.919 5.65743 14.4178 6.46271 15.1432 7.04101C15.8686 7.61932 16.7762 7.93517 17.7125 7.93517C18.6488 7.93517 19.5564 7.61932 20.2818 7.04101C21.0072 6.46271 21.506 5.65743 21.6937 4.76132H25.1875C25.403 4.76132 25.6097 4.6777 25.762 4.52884C25.9144 4.37999 26 4.1781 26 3.96759C26 3.75707 25.9144 3.55518 25.762 3.40633C25.6097 3.25747 25.403 3.17385 25.1875 3.17385H21.6937C21.506 2.27774 21.0072 1.47246 20.2818 0.894158C19.5564 0.315853 18.6488 0 17.7125 0C16.7762 0 15.8686 0.315853 15.1432 0.894158C14.4178 1.47246 13.919 2.27774 13.7312 3.17385H0.8125C0.597012 3.17385 0.390349 3.25747 0.237976 3.40633C0.0856024 3.55518 0 3.75707 0 3.96759C0 4.1781 0.0856024 4.37999 0.237976 4.52884C0.390349 4.6777 0.597012 4.76132 0.8125 4.76132ZM17.7125 1.58637C18.359 1.58637 18.979 1.83725 19.4361 2.28381C19.8932 2.73038 20.15 3.33605 20.15 3.96759C20.15 4.59912 19.8932 5.2048 19.4361 5.65136C18.979 6.09792 18.359 6.3488 17.7125 6.3488C17.066 6.3488 16.446 6.09792 15.9889 5.65136C15.5318 5.2048 15.275 4.59912 15.275 3.96759C15.275 3.33605 15.5318 2.73038 15.9889 2.28381C16.446 1.83725 17.066 1.58637 17.7125 1.58637ZM0.8125 16.8262H4.46875C4.65651 17.7223 5.15526 18.5275 5.88069 19.1058C6.60611 19.6841 7.51369 20 8.45 20C9.38631 20 10.2939 19.6841 11.0193 19.1058C11.7447 18.5275 12.2435 17.7223 12.4312 16.8262H25.1875C25.403 16.8262 25.6097 16.7425 25.762 16.5937C25.9144 16.4448 26 16.2429 26 16.0324C26 15.8219 25.9144 15.62 25.762 15.4712C25.6097 15.3223 25.403 15.2387 25.1875 15.2387H12.4312C12.2435 14.3426 11.7447 13.5373 11.0193 12.959C10.2939 12.3807 9.38631 12.0648 8.45 12.0648C7.51369 12.0648 6.60611 12.3807 5.88069 12.959C5.15526 13.5373 4.65651 14.3426 4.46875 15.2387H0.8125C0.597012 15.2387 0.390349 15.3223 0.237976 15.4712C0.0856024 15.62 0 15.8219 0 16.0324C0 16.2429 0.0856024 16.4448 0.237976 16.5937C0.390349 16.7425 0.597012 16.8262 0.8125 16.8262ZM8.45 13.6512C9.09647 13.6512 9.71645 13.9021 10.1736 14.3486C10.6307 14.7952 10.8875 15.4009 10.8875 16.0324C10.8875 16.664 10.6307 17.2696 10.1736 17.7162C9.71645 18.1628 9.09647 18.4136 8.45 18.4136C7.80353 18.4136 7.18355 18.1628 6.72643 17.7162C6.26931 17.2696 6.0125 16.664 6.0125 16.0324C6.0125 15.4009 6.26931 14.7952 6.72643 14.3486C7.18355 13.9021 7.80353 13.6512 8.45 13.6512Z" fill="#314D4A"/>
</svg>
