<svg width="20" height="20" viewBox="0 0 20 20" fill="none" xmlns="http://www.w3.org/2000/svg">
<path d="M8.6112 0.882179V4.47285C8.6112 4.96005 8.24417 5.35466 7.79167 5.35466C6.17696 5.35466 5.29853 7.13653 5.17661 10.654H7.79167C8.24412 10.654 8.6112 11.0491 8.6112 11.5358V19.1176C8.6112 19.6047 8.24417 19.9993 7.79167 19.9993H0.819588C0.367195 19.9993 0 19.6042 0 19.1176V11.5357C0 9.8497 0.158188 8.30253 0.468721 6.93611C0.787733 5.53535 1.27742 4.31072 1.92387 3.29587C2.58871 2.25298 3.42107 1.4346 4.39638 0.864672C5.37909 0.291101 6.52141 0 7.79201 0C8.24412 0.000370026 8.6112 0.395348 8.6112 0.882179ZM19.1806 5.35497C19.6331 5.35497 20 4.96005 20 4.47353V0.882118C20 0.395348 19.6331 0.000679016 19.1806 0.000679016C17.9107 0.000679016 16.7678 0.291842 15.7857 0.865351C14.8099 1.43522 13.9776 2.25292 13.3128 3.29655C12.666 4.31139 12.1764 5.53609 11.8574 6.93753C11.5466 8.30395 11.3888 9.85118 11.3888 11.5364V19.1184C11.3888 19.6054 11.7561 20 12.2083 20H19.1806C19.6331 20 20 19.605 20 19.1184V11.5364C20 11.0495 19.6331 10.6546 19.1806 10.6546H16.6023C16.7227 7.1369 17.5885 5.35497 19.1806 5.35497Z" fill="white"/>
</svg>
