<svg width="103" height="34" viewBox="0 0 103 34" fill="none" xmlns="http://www.w3.org/2000/svg">
<path d="M39.32 25V14.18H41.48V16.36L41.28 16.04C41.52 15.3333 41.9067 14.8267 42.44 14.52C42.9733 14.2 43.6133 14.04 44.36 14.04H45.02V16.1H44.08C43.3333 16.1 42.7267 16.3333 42.26 16.8C41.8067 17.2533 41.58 17.9067 41.58 18.76V25H39.32ZM51.6461 25.24C50.5661 25.24 49.6061 24.9933 48.7661 24.5C47.9394 23.9933 47.2928 23.3133 46.8261 22.46C46.3594 21.5933 46.1261 20.6267 46.1261 19.56C46.1261 18.4667 46.3594 17.5 46.8261 16.66C47.3061 15.82 47.9461 15.16 48.7461 14.68C49.5461 14.1867 50.4528 13.94 51.4661 13.94C52.2794 13.94 53.0061 14.08 53.6461 14.36C54.2861 14.64 54.8261 15.0267 55.2661 15.52C55.7061 16 56.0394 16.5533 56.2661 17.18C56.5061 17.8067 56.6261 18.4733 56.6261 19.18C56.6261 19.3533 56.6194 19.5333 56.6061 19.72C56.5928 19.9067 56.5661 20.08 56.5261 20.24H47.9061V18.44H55.2461L54.1661 19.26C54.2994 18.6067 54.2528 18.0267 54.0261 17.52C53.8128 17 53.4794 16.5933 53.0261 16.3C52.5861 15.9933 52.0661 15.84 51.4661 15.84C50.8661 15.84 50.3328 15.9933 49.8661 16.3C49.3994 16.5933 49.0394 17.02 48.7861 17.58C48.5328 18.1267 48.4328 18.7933 48.4861 19.58C48.4194 20.3133 48.5194 20.9533 48.7861 21.5C49.0661 22.0467 49.4528 22.4733 49.9461 22.78C50.4528 23.0867 51.0261 23.24 51.6661 23.24C52.3194 23.24 52.8728 23.0933 53.3261 22.8C53.7928 22.5067 54.1594 22.1267 54.4261 21.66L56.2661 22.56C56.0528 23.0667 55.7194 23.5267 55.2661 23.94C54.8261 24.34 54.2928 24.66 53.6661 24.9C53.0528 25.1267 52.3794 25.24 51.6461 25.24ZM63.8317 25.24C62.7917 25.24 61.8584 24.9933 61.0317 24.5C60.2184 23.9933 59.5717 23.3133 59.0917 22.46C58.6251 21.6067 58.3917 20.6467 58.3917 19.58C58.3917 18.5133 58.6317 17.5533 59.1117 16.7C59.5917 15.8467 60.2384 15.1733 61.0517 14.68C61.8651 14.1867 62.7851 13.94 63.8117 13.94C64.6784 13.94 65.4451 14.1133 66.1117 14.46C66.7784 14.8067 67.3051 15.2867 67.6917 15.9L67.3517 16.42V9.86H69.5917V25H67.4517V22.8L67.7117 23.22C67.3384 23.8733 66.8051 24.3733 66.1117 24.72C65.4184 25.0667 64.6584 25.24 63.8317 25.24ZM64.0517 23.14C64.6784 23.14 65.2384 22.9867 65.7317 22.68C66.2384 22.3733 66.6317 21.9533 66.9117 21.42C67.2051 20.8733 67.3517 20.26 67.3517 19.58C67.3517 18.9 67.2051 18.2933 66.9117 17.76C66.6317 17.2267 66.2384 16.8067 65.7317 16.5C65.2384 16.1933 64.6784 16.04 64.0517 16.04C63.4251 16.04 62.8584 16.1933 62.3517 16.5C61.8451 16.8067 61.4517 17.2267 61.1717 17.76C60.8917 18.2933 60.7517 18.9 60.7517 19.58C60.7517 20.26 60.8917 20.8733 61.1717 21.42C61.4517 21.9533 61.8384 22.3733 62.3317 22.68C62.8384 22.9867 63.4117 23.14 64.0517 23.14ZM75.4702 25.24C74.7368 25.24 74.0902 25.1133 73.5302 24.86C72.9835 24.5933 72.5568 24.2333 72.2502 23.78C71.9435 23.3133 71.7902 22.7667 71.7902 22.14C71.7902 21.5533 71.9168 21.0267 72.1702 20.56C72.4368 20.0933 72.8435 19.7 73.3902 19.38C73.9368 19.06 74.6235 18.8333 75.4502 18.7L79.2102 18.08V19.86L75.8902 20.44C75.2902 20.5467 74.8502 20.74 74.5702 21.02C74.2902 21.2867 74.1502 21.6333 74.1502 22.06C74.1502 22.4733 74.3035 22.8133 74.6102 23.08C74.9302 23.3333 75.3368 23.46 75.8302 23.46C76.4435 23.46 76.9768 23.3267 77.4302 23.06C77.8968 22.7933 78.2568 22.44 78.5102 22C78.7635 21.5467 78.8902 21.0467 78.8902 20.5V17.72C78.8902 17.1867 78.6902 16.7533 78.2902 16.42C77.9035 16.0733 77.3835 15.9 76.7302 15.9C76.1302 15.9 75.6035 16.06 75.1502 16.38C74.7102 16.6867 74.3835 17.0867 74.1702 17.58L72.2902 16.64C72.4902 16.1067 72.8168 15.64 73.2702 15.24C73.7235 14.8267 74.2502 14.5067 74.8502 14.28C75.4635 14.0533 76.1102 13.94 76.7902 13.94C77.6435 13.94 78.3968 14.1 79.0502 14.42C79.7168 14.74 80.2302 15.1867 80.5902 15.76C80.9635 16.32 81.1502 16.9733 81.1502 17.72V25H78.9902V23.04L79.4502 23.1C79.1968 23.54 78.8702 23.92 78.4702 24.24C78.0835 24.56 77.6368 24.8067 77.1302 24.98C76.6368 25.1533 76.0835 25.24 75.4702 25.24ZM88.9327 25.24C87.8527 25.24 86.8927 24.9933 86.0527 24.5C85.226 23.9933 84.566 23.3133 84.0727 22.46C83.5927 21.6067 83.3527 20.64 83.3527 19.56C83.3527 18.4933 83.5927 17.5333 84.0727 16.68C84.5527 15.8267 85.2127 15.16 86.0527 14.68C86.8927 14.1867 87.8527 13.94 88.9327 13.94C89.666 13.94 90.3527 14.0733 90.9927 14.34C91.6327 14.5933 92.186 14.9467 92.6527 15.4C93.1327 15.8533 93.486 16.38 93.7127 16.98L91.7327 17.9C91.506 17.34 91.1393 16.8933 90.6327 16.56C90.1393 16.2133 89.5727 16.04 88.9327 16.04C88.3193 16.04 87.766 16.1933 87.2727 16.5C86.7927 16.7933 86.4127 17.2133 86.1327 17.76C85.8527 18.2933 85.7127 18.9 85.7127 19.58C85.7127 20.26 85.8527 20.8733 86.1327 21.42C86.4127 21.9533 86.7927 22.3733 87.2727 22.68C87.766 22.9867 88.3193 23.14 88.9327 23.14C89.586 23.14 90.1527 22.9733 90.6327 22.64C91.126 22.2933 91.4927 21.8333 91.7327 21.26L93.7127 22.2C93.4993 22.7733 93.1527 23.2933 92.6727 23.76C92.206 24.2133 91.6527 24.5733 91.0127 24.84C90.3727 25.1067 89.6793 25.24 88.9327 25.24ZM100.602 25.12C99.4682 25.12 98.5882 24.8 97.9616 24.16C97.3349 23.52 97.0216 22.62 97.0216 21.46V16.22H95.1216V14.18H95.4216C95.9282 14.18 96.3216 14.0333 96.6016 13.74C96.8816 13.4467 97.0216 13.0467 97.0216 12.54V11.7H99.2816V14.18H101.742V16.22H99.2816V21.36C99.2816 21.7333 99.3416 22.0533 99.4616 22.32C99.5816 22.5733 99.7749 22.7733 100.042 22.92C100.308 23.0533 100.655 23.12 101.082 23.12C101.188 23.12 101.308 23.1133 101.442 23.1C101.575 23.0867 101.702 23.0733 101.822 23.06V25C101.635 25.0267 101.428 25.0533 101.202 25.08C100.975 25.1067 100.775 25.12 100.602 25.12Z" fill="white"/>
<path fill-rule="evenodd" clip-rule="evenodd" d="M28.3596 14.1279C30.5468 15.4044 30.5468 18.5956 28.3596 19.8721L4.92126 33.5507C2.73403 34.8272 0 33.2316 0 30.6787V3.32132C0 0.768377 2.73404 -0.827222 4.92126 0.449263L15.6936 6.73603L10.1899 12.2433C10.1114 12.3218 10.1119 12.4492 10.1909 12.5271L12.2927 14.5987C12.371 14.6759 12.4969 14.6754 12.5746 14.5977L18.6861 8.48242L28.3596 14.1279ZM8.01764 16.526C7.94387 16.6933 8.11488 16.8637 8.28198 16.7893L11.452 15.3784C11.5807 15.3211 11.6114 15.1521 11.5109 15.0532L9.73398 13.3038C9.63425 13.2056 9.4671 13.2376 9.41066 13.3657L8.01764 16.526Z" fill="#FFA654"/>
</svg>
